<svg width="124" height="124" viewBox="0 0 124 124" fill="none" xmlns="http://www.w3.org/2000/svg">
<path d="M46.5001 55.5417C38.6467 55.5417 32.2917 49.1867 32.2917 41.3333C32.2917 33.48 38.6467 27.125 46.5001 27.125C54.3534 27.125 60.7084 33.48 60.7084 41.3333C60.7084 49.1867 54.3534 55.5417 46.5001 55.5417ZM46.5001 34.875C42.9351 34.875 40.0417 37.7683 40.0417 41.3333C40.0417 44.8983 42.9351 47.7917 46.5001 47.7917C50.0651 47.7917 52.9584 44.8983 52.9584 41.3333C52.9584 37.7683 50.0651 34.875 46.5001 34.875Z" fill="#292D32"/>
<path d="M77.4999 117.541H46.4999C18.4449 117.541 6.45825 105.555 6.45825 77.4997V46.4997C6.45825 18.4447 18.4449 6.45801 46.4999 6.45801H67.1666C69.2849 6.45801 71.0416 8.21467 71.0416 10.333C71.0416 12.4513 69.2849 14.208 67.1666 14.208H46.4999C22.6816 14.208 14.2083 22.6813 14.2083 46.4997V77.4997C14.2083 101.318 22.6816 109.791 46.4999 109.791H77.4999C101.318 109.791 109.792 101.318 109.792 77.4997V51.6663C109.792 49.548 111.548 47.7913 113.667 47.7913C115.785 47.7913 117.542 49.548 117.542 51.6663V77.4997C117.542 105.555 105.555 117.541 77.4999 117.541Z" fill="#292D32"/>
<path d="M93 45.2087C90.8817 45.2087 89.125 43.452 89.125 41.3337V10.3337C89.125 8.78367 90.055 7.337 91.5017 6.76867C92.9483 6.20034 94.6017 6.51034 95.7383 7.59534L106.072 17.9287C107.57 19.427 107.57 21.907 106.072 23.4053C104.573 24.9037 102.093 24.9037 100.595 23.4053L96.875 19.6853V41.3337C96.875 43.452 95.1183 45.2087 93 45.2087Z" fill="#292D32"/>
<path d="M82.6668 24.5421C81.6851 24.5421 80.7034 24.1804 79.9284 23.4054C78.4301 21.9071 78.4301 19.4271 79.9284 17.9288L90.2618 7.59543C91.7601 6.0971 94.2401 6.0971 95.7384 7.59543C97.2368 9.09376 97.2368 11.5738 95.7384 13.0721L85.4051 23.4054C84.6301 24.1804 83.6484 24.5421 82.6668 24.5421Z" fill="#292D32"/>
<path d="M13.7949 101.784C12.5549 101.784 11.3149 101.164 10.5916 100.079C9.40322 98.3219 9.86822 95.8936 11.6249 94.7052L37.0966 77.6036C42.6766 73.8836 50.3749 74.2969 55.4382 78.5852L57.1432 80.0836C59.7266 82.3052 64.1182 82.3052 66.6499 80.0836L88.1432 61.6386C93.6199 56.9369 102.248 56.9369 107.777 61.6386L116.198 68.8719C117.8 70.2669 118.007 72.6952 116.612 74.3486C115.217 75.9502 112.737 76.1569 111.135 74.7619L102.713 67.5286C100.13 65.3069 95.7899 65.3069 93.2066 67.5286L71.7132 85.9736C66.2365 90.6752 57.6082 90.6752 52.0799 85.9736L50.3749 84.4752C47.9982 82.4602 44.0716 82.2536 41.4366 84.0619L16.0166 101.164C15.2932 101.577 14.5182 101.784 13.7949 101.784Z" fill="#292D32"/>
</svg>
