<svg width="44" height="26" viewBox="0 0 44 26" fill="none" xmlns="http://www.w3.org/2000/svg">
<path d="M11.9166 22.0003H8.24992C7.74392 22.0003 7.33325 21.5897 7.33325 21.0837C7.33325 20.5777 7.74392 20.167 8.24992 20.167H11.9166C12.4226 20.167 12.8333 20.5777 12.8333 21.0837C12.8333 21.5897 12.4226 22.0003 11.9166 22.0003Z" fill="#35714E"/>
<path d="M41.7084 22H39.4167C38.9107 22 38.5 21.5893 38.5 21.0833C38.5 20.5773 38.9107 20.1667 39.4167 20.1667H40.9475L42.1832 13.5813C42.1667 10.2117 39.2884 7.33333 35.75 7.33333H29.7312L26.8144 20.1667H32.0834C32.5894 20.1667 33 20.5773 33 21.0833C33 21.5893 32.5894 22 32.0834 22H25.6667C25.388 22 25.124 21.8735 24.9499 21.6553C24.7757 21.439 24.7097 21.153 24.772 20.8817L28.105 6.215C28.2004 5.79517 28.5707 5.5 28.9997 5.5H35.75C40.2985 5.5 44 9.2015 44 13.75L42.6085 21.252C42.5279 21.6865 42.1502 22 41.7084 22Z" fill="#35714E"/>
<path d="M35.75 25.6667C33.2236 25.6667 31.1666 23.6115 31.1666 21.0833C31.1666 18.5552 33.2236 16.5 35.75 16.5C38.2763 16.5 40.3333 18.5552 40.3333 21.0833C40.3333 23.6115 38.2763 25.6667 35.75 25.6667ZM35.75 18.3333C34.2338 18.3333 33 19.5672 33 21.0833C33 22.5995 34.2338 23.8333 35.75 23.8333C37.2661 23.8333 38.5 22.5995 38.5 21.0833C38.5 19.5672 37.2661 18.3333 35.75 18.3333Z" fill="#35714E"/>
<path d="M15.5833 25.6667C13.057 25.6667 11 23.6115 11 21.0833C11 18.5552 13.057 16.5 15.5833 16.5C18.1097 16.5 20.1667 18.5552 20.1667 21.0833C20.1667 23.6115 18.1097 25.6667 15.5833 25.6667ZM15.5833 18.3333C14.0672 18.3333 12.8333 19.5672 12.8333 21.0833C12.8333 22.5995 14.0672 23.8333 15.5833 23.8333C17.0995 23.8333 18.3333 22.5995 18.3333 21.0833C18.3333 19.5672 17.0995 18.3333 15.5833 18.3333Z" fill="#35714E"/>
<path d="M11.9168 5.50033H4.58342C4.07741 5.50033 3.66675 5.08966 3.66675 4.58366C3.66675 4.07766 4.07741 3.66699 4.58342 3.66699H11.9168C12.4228 3.66699 12.8334 4.07766 12.8334 4.58366C12.8334 5.08966 12.4228 5.50033 11.9168 5.50033Z" fill="#35714E"/>
<path d="M11.9166 11.0003H2.74992C2.24392 11.0003 1.83325 10.5897 1.83325 10.0837C1.83325 9.57766 2.24392 9.16699 2.74992 9.16699H11.9166C12.4226 9.16699 12.8333 9.57766 12.8333 10.0837C12.8333 10.5897 12.4226 11.0003 11.9166 11.0003Z" fill="#35714E"/>
<path d="M11.9167 16.5003H0.916667C0.410667 16.5003 0 16.0897 0 15.5837C0 15.0777 0.410667 14.667 0.916667 14.667H11.9167C12.4227 14.667 12.8333 15.0777 12.8333 15.5837C12.8333 16.0897 12.4227 16.5003 11.9167 16.5003Z" fill="#35714E"/>
<path d="M25.6667 22H19.25C18.744 22 18.3334 21.5893 18.3334 21.0833C18.3334 20.5773 18.744 20.1667 19.25 20.1667H24.9352L29.1005 1.83333H8.25004C7.74404 1.83333 7.33337 1.42267 7.33337 0.916667C7.33337 0.410667 7.74404 0 8.25004 0H30.25C30.5287 0 30.7927 0.1265 30.9669 0.344667C31.141 0.561001 31.207 0.847001 31.1447 1.11833L26.5614 21.285C26.466 21.7048 26.0939 22 25.6667 22Z" fill="#35714E"/>
</svg>
